<?xml version="1.0" encoding="UTF-8" standalone="no"?>
<!-- Created with Inkscape (http://www.inkscape.org/) -->

<svg
   xmlns:dc="http://purl.org/dc/elements/1.1/"
   xmlns:cc="http://creativecommons.org/ns#"
   xmlns:rdf="http://www.w3.org/1999/02/22-rdf-syntax-ns#"
   xmlns:svg="http://www.w3.org/2000/svg"
   xmlns="http://www.w3.org/2000/svg"
   xmlns:sodipodi="http://sodipodi.sourceforge.net/DTD/sodipodi-0.dtd"
   xmlns:inkscape="http://www.inkscape.org/namespaces/inkscape"
   width="50"
   height="50"
   viewBox="0 0 50 50.000001"
   id="svg2"
   version="1.1"
   inkscape:version="0.91 r13725"
   sodipodi:docname="HeaderIcon_nurKreis.svg">
  <defs
     id="defs4" />
  <sodipodi:namedview
     id="base"
     pagecolor="#ffffff"
     bordercolor="#666666"
     borderopacity="1.0"
     inkscape:pageopacity="0.0"
     inkscape:pageshadow="2"
     inkscape:zoom="5.6"
     inkscape:cx="36.096059"
     inkscape:cy="15.625"
     inkscape:document-units="px"
     inkscape:current-layer="layer1"
     showgrid="false"
     units="px"
     inkscape:window-width="1217"
     inkscape:window-height="697"
     inkscape:window-x="55"
     inkscape:window-y="-8"
     inkscape:window-maximized="1" />
  <metadata
     id="metadata7">
    <rdf:RDF>
      <cc:Work
         rdf:about="">
        <dc:format>image/svg+xml</dc:format>
        <dc:type
           rdf:resource="http://purl.org/dc/dcmitype/StillImage" />
        <dc:title></dc:title>
      </cc:Work>
    </rdf:RDF>
  </metadata>
  <g
     inkscape:label="Ebene 1"
     inkscape:groupmode="layer"
     id="layer1"
     transform="translate(0,-1002.3622)">
    <g
       transform="matrix(0.99998488,0.00549832,-0.00549832,0.99998488,-267.0993,743.19522)"
       id="XMLID_1_"
       style="fill:#ff0000">
      <g
         transform="matrix(0.99998489,-0.00549832,0.00549832,0.99998489,-90.210781,42.58506)"
         id="XMLID_1_-0"
         style="fill:#ff0000">
        <path
           inkscape:connector-curvature="0"
           id="XMLID_5_"
           class="st0"
           d="m 382.34063,218.07144 c -13.34338,0 -24.12591,10.69955 -24.12591,23.94024 0,12.88404 10.2434,23.36068 23.09259,23.89565 l 0,-31.20701 -8.31154,0.75789 -0.71884,-4.8148 17.02741,-1.96158 0,36.24471 c 9.92891,-2.98695 17.11726,-12.12615 17.11726,-22.91486 0.0449,-13.19611 -10.73759,-23.94024 -24.08097,-23.94024 z"
           style="fill:#e30613;fill-opacity:1" />
        <g
           id="XMLID_6_"
           style="fill:#ff0000" />
      </g>
    </g>
    <path
       style="fill:#e30613;fill-opacity:0"
       d="M 71.957466,47.497396 C 62.367546,46.100848 54.799979,38.905791 52.9156,29.392857 c -0.327135,-1.651482 -0.327135,-6.562803 0,-8.214286 1.092398,-5.514767 4.249171,-10.566658 8.663199,-13.8640117 2.062419,-1.5406623 5.261937,-3.0675026 7.874908,-3.7579812 2.046911,-0.5408969 2.294771,-0.5662507 5.535714,-0.5662507 3.229218,0 3.494379,0.026853 5.497768,0.5567605 3.990259,1.0554457 7.388766,3.0105189 10.310134,5.9311523 4.806296,4.8050888 7.162261,11.4064028 6.442214,18.0508148 -0.895144,8.260177 -5.944368,15.104636 -13.567252,18.39104 -0.899273,0.387698 -1.754284,0.704905 -1.900025,0.704905 -0.232401,0 -0.264982,-2.085754 -0.264982,-16.964286 0,-9.330357 -0.04881,-16.964285 -0.108471,-16.964285 -0.477354,0 -15.711368,1.831743 -15.77661,1.896985 -0.09589,0.09589 0.500846,4.385446 0.627727,4.512327 0.04529,0.04529 1.62842,-0.05403 3.518065,-0.22072 1.889645,-0.166687 3.616521,-0.301417 3.837504,-0.299401 l 0.401785,0.0037 0,14.553571 0,14.553572 -0.491071,-0.02178 c -0.270089,-0.01198 -0.971523,-0.09174 -1.558741,-0.177258 z"
       id="path4338"
       inkscape:connector-curvature="0"
       transform="translate(0,1002.3622)" />
    <path
       style="fill:#e30613;fill-opacity:0"
       d="M 72.400135,47.577105 C 67.99248,46.879211 64.619098,45.510548 61.477173,43.145395 50.828709,35.12953 49.527685,19.598213 58.693546,9.915113 c 3.230921,-3.4132457 7.53812,-5.7819989 12.188732,-6.7032198 1.651482,-0.3271354 6.562804,-0.3271354 8.214286,0 9.05397,1.7934643 16.100586,8.8170798 17.886686,17.8283068 0.429796,2.168402 0.428723,6.390179 -0.0021,8.441943 -0.407139,1.938768 -1.201316,4.322484 -1.917054,5.75402 -1.608034,3.216208 -4.631684,6.674085 -7.503171,8.580701 -1.652157,1.097004 -4.580663,2.558191 -5.492693,2.740597 l -0.560911,0.112182 0,-17.009431 0,-17.009429 -0.669643,0.101208 c -0.368303,0.05566 -3.924107,0.476284 -7.901785,0.934711 -3.977679,0.458426 -7.265168,0.86466 -7.305532,0.902742 -0.08557,0.08073 0.508773,4.405464 0.620842,4.517533 0.0415,0.0415 1.582624,-0.05936 3.424716,-0.224127 1.842093,-0.164772 3.570242,-0.298231 3.840331,-0.296575 l 0.491071,0.003 0,14.553571 0,14.553572 -0.580357,-0.02432 c -0.319196,-0.01338 -0.78125,-0.05613 -1.026786,-0.09501 z"
       id="path4340"
       inkscape:connector-curvature="0"
       transform="translate(0,1002.3622)" />
    <path
       style="fill:#e30613;fill-opacity:0"
       d="M 72.400135,47.577105 C 67.99248,46.879211 64.619098,45.510548 61.477173,43.145395 50.828709,35.12953 49.527685,19.598213 58.693546,9.915113 c 3.230921,-3.4132457 7.53812,-5.7819989 12.188732,-6.7032198 1.651482,-0.3271354 6.562804,-0.3271354 8.214286,0 9.05397,1.7934643 16.100586,8.8170798 17.886686,17.8283068 0.429796,2.168402 0.428723,6.390179 -0.0021,8.441943 -0.407139,1.938768 -1.201316,4.322484 -1.917054,5.75402 -1.608034,3.216208 -4.631684,6.674085 -7.503171,8.580701 -1.652157,1.097004 -4.580663,2.558191 -5.492693,2.740597 l -0.560911,0.112182 0,-17.009431 0,-17.009429 -0.669643,0.101208 c -0.368303,0.05566 -3.924107,0.476284 -7.901785,0.934711 -3.977679,0.458426 -7.265168,0.86466 -7.305532,0.902742 -0.08557,0.08073 0.508773,4.405464 0.620842,4.517533 0.0415,0.0415 1.582624,-0.05936 3.424716,-0.224127 1.842093,-0.164772 3.570242,-0.298231 3.840331,-0.296575 l 0.491071,0.003 0,14.553571 0,14.553572 -0.580357,-0.02432 c -0.319196,-0.01338 -0.78125,-0.05613 -1.026786,-0.09501 z"
       id="path4342"
       inkscape:connector-curvature="0"
       transform="translate(0,1002.3622)" />
    <path
       style="fill:#e30613;fill-opacity:0"
       d="M 71.957466,47.497396 C 62.367546,46.100848 54.799979,38.905791 52.9156,29.392857 c -0.327135,-1.651482 -0.327135,-6.562803 0,-8.214286 1.092398,-5.514767 4.249171,-10.566658 8.663199,-13.8640117 2.062419,-1.5406623 5.261937,-3.0675026 7.874908,-3.7579812 2.046911,-0.5408969 2.294771,-0.5662507 5.535714,-0.5662507 3.229218,0 3.494379,0.026853 5.497768,0.5567605 3.990259,1.0554457 7.388766,3.0105189 10.310134,5.9311523 4.806296,4.8050888 7.162261,11.4064028 6.442214,18.0508148 -0.895144,8.260177 -5.944368,15.104636 -13.567252,18.39104 -0.899273,0.387698 -1.754284,0.704905 -1.900025,0.704905 -0.232401,0 -0.264982,-2.085754 -0.264982,-16.964286 0,-9.330357 -0.04881,-16.964285 -0.108471,-16.964285 -0.477354,0 -15.711368,1.831743 -15.77661,1.896985 -0.09589,0.09589 0.500846,4.385446 0.627727,4.512327 0.04529,0.04529 1.62842,-0.05403 3.518065,-0.22072 1.889645,-0.166687 3.616521,-0.301417 3.837504,-0.299401 l 0.401785,0.0037 0,14.553571 0,14.553572 -0.491071,-0.02178 c -0.270089,-0.01198 -0.971523,-0.09174 -1.558741,-0.177258 z"
       id="path4344"
       inkscape:connector-curvature="0"
       transform="translate(0,1002.3622)" />
  </g>
</svg>
